# Created by Kenney (www.kenney.nl)

mtllib Biplane.mtl

v 6 1 0.5
v 6 1 -0.5
v 4 1 0.5
v 4 1 -0.5
v 4 3 -0.5
v 4 3 0.5
v 6 3 -0.5
v 6 3 0.5
v 6 2 0.5
v 6 2 -0.5
v 5 2 0.5
v 5 2 -0.5
v 5 3 -0.5
v 5 3 0.5
v 0 1 4
v 0 1 -4
v -3 1 4
v -3 1 -4
v -3 2 -4
v -3 2 4
v 0 2 -4
v 0 2 4
v 5 0 1
v 5 0 -1
v -4 0 1
v -4 0 -1
v -4 1 -1
v -4 1 1
v 5 1 -1
v 5 1 1
v 2 -1 1
v 2 -1 -1
v 0 -1 1
v 0 -1 -1
v 0 0 -1
v 0 0 1
v 2 0 -1
v 2 0 1
v 0 -1 4
v 0 -1 -4
v -3 -1 4
v -3 -1 -4
v -3 0 -4
v -3 0 4
v 0 0 -4
v 0 0 4
v -3 -1 1
v -3 -1 -1
v -4 -1 1
v -4 -1 -1
v -3 0 -1
v -3 0 1

vn 0 -1 0
vn -1 0 0
vn 0 0 -1
vn 0 0 1
vn 1 0 0
vn 0 1 0

vt 0 NaN
vt 0 0
vt 0 NaN
vt 0 NaN
vt 0 NaN
vt 0 NaN
vt 0 NaN
vt 0 NaN
vt 0 NaN
vt 0 NaN
vt 0 NaN
vt 0 NaN
vt 0 NaN
vt 0 NaN
vt 0 NaN
vt 0 NaN
vt 0 NaN
vt 0 NaN
vt 0 NaN
vt 0 NaN
vt 0 NaN
vt 0 NaN
vt 0 NaN
vt 0 NaN
vt 0 NaN
vt 0 NaN
vt 0 NaN
vt 0 NaN
vt 0 NaN
vt 0 NaN
vt 0 NaN
vt 0 NaN
vt 0 NaN
vt 0 NaN
vt 0 NaN
vt 0 NaN
vt 0 NaN
vt 0 NaN
vt 0 NaN
vt 0 NaN
vt 0 NaN
vt 0 NaN
vt 0 NaN
vt 0 NaN
vt 0 NaN
vt 0 NaN
vt 0 NaN
vt 0 NaN
vt 0 NaN
vt 0 NaN
vt 0 NaN
vt 0 NaN
vt 0 NaN
vt 0 NaN
vt 0 NaN
vt 0 NaN
vt 0 NaN
vt 0 NaN
vt 0 NaN
vt 0 NaN
vt 0 NaN
vt 0 NaN
vt 0 NaN
vt 0 NaN
vt 0 NaN
vt 0 NaN
vt 0 NaN
vt 0 NaN
vt 0 NaN
vt 0 NaN
vt 0 NaN
vt 0 NaN
vt 0 NaN
vt 0 NaN
vt 0 NaN
vt 0 NaN
vt 0 NaN
vt 0 NaN
vt 0 NaN
vt 0 NaN

usemtl color8

f 3/2/1 2/2/1 1/1/1
f 2/2/1 3/2/1 4/3/1
f 3/2/2 5/2/2 4/4/2
f 5/2/2 3/2/2 6/5/2
f 5/2/3 2/2/3 4/6/3
f 2/2/3 5/2/3 7/7/3
f 8/2/4 3/2/4 1/8/4
f 3/2/4 8/2/4 6/9/4
f 8/2/5 2/2/5 7/10/5
f 2/2/5 8/2/5 1/11/5
f 5/2/6 8/2/6 7/12/6
f 8/2/6 5/2/6 6/13/6
f 11/2/1 10/2/1 9/14/1
f 10/2/1 11/2/1 12/15/1
f 11/2/2 13/2/2 12/16/2
f 13/2/2 11/2/2 14/17/2
f 13/2/3 10/2/3 12/18/3
f 10/2/3 13/2/3 7/7/3
f 8/2/4 11/2/4 9/19/4
f 11/2/4 8/2/4 14/20/4
f 8/2/5 10/2/5 7/10/5
f 10/2/5 8/2/5 9/21/5
f 13/2/6 8/2/6 7/12/6
f 8/2/6 13/2/6 14/22/6
f 17/2/1 16/2/1 15/23/1
f 16/2/1 17/2/1 18/24/1
f 17/2/2 19/2/2 18/25/2
f 19/2/2 17/2/2 20/26/2
f 19/2/3 16/2/3 18/27/3
f 16/2/3 19/2/3 21/28/3
f 22/2/4 17/2/4 15/29/4
f 17/2/4 22/2/4 20/30/4
f 22/2/5 16/2/5 21/31/5
f 16/2/5 22/2/5 15/32/5
f 19/2/6 22/2/6 21/33/6
f 22/2/6 19/2/6 20/34/6
f 25/2/1 24/2/1 23/35/1
f 24/2/1 25/2/1 26/36/1
f 25/2/2 27/2/2 26/37/2
f 27/2/2 25/2/2 28/38/2
f 27/2/3 24/2/3 26/39/3
f 24/2/3 27/2/3 29/40/3
f 30/2/4 25/2/4 23/41/4
f 25/2/4 30/2/4 28/42/4
f 30/2/5 24/2/5 29/43/5
f 24/2/5 30/2/5 23/44/5
f 27/2/6 30/2/6 29/45/6
f 30/2/6 27/2/6 28/46/6
f 33/2/1 32/2/1 31/47/1
f 32/2/1 33/2/1 34/48/1
f 33/2/2 35/2/2 34/49/2
f 35/2/2 33/2/2 36/50/2
f 35/2/3 32/2/3 34/51/3
f 32/2/3 35/2/3 37/52/3
f 38/2/4 33/2/4 31/53/4
f 33/2/4 38/2/4 36/54/4
f 38/2/5 32/2/5 37/55/5
f 32/2/5 38/2/5 31/56/5
f 35/2/6 38/2/6 37/57/6
f 38/2/6 35/2/6 36/58/6
f 41/2/1 40/2/1 39/59/1
f 40/2/1 41/2/1 42/60/1
f 41/2/2 43/2/2 42/61/2
f 43/2/2 41/2/2 44/62/2
f 43/2/3 40/2/3 42/63/3
f 40/2/3 43/2/3 45/64/3
f 46/2/4 41/2/4 39/65/4
f 41/2/4 46/2/4 44/66/4
f 46/2/5 40/2/5 45/67/5
f 40/2/5 46/2/5 39/68/5
f 43/2/6 46/2/6 45/69/6
f 46/2/6 43/2/6 44/70/6
f 49/2/1 48/2/1 47/71/1
f 48/2/1 49/2/1 50/72/1
f 49/2/2 26/37/2 50/73/2
f 26/37/2 49/2/2 25/2/2
f 26/39/3 48/2/3 50/74/3
f 48/2/3 26/39/3 51/75/3
f 52/2/4 49/2/4 47/76/4
f 49/2/4 52/2/4 25/2/4
f 52/2/5 48/2/5 51/77/5
f 48/2/5 52/2/5 47/78/5
f 26/2/6 52/2/6 51/79/6
f 52/2/6 26/2/6 25/80/6

