# Created by Kenney (www.kenney.nl)

mtllib Bi-Plane_wing.mtl

v 10 1 2
v 10 1 -2
v 9 1 2
v 9 1 -2
v 9 2 -2
v 9 2 2
v 10 2 -2
v 10 2 2
v 9 1 3
v 9 1 -3
v 8 1 3
v 8 1 -3
v 8 2 -3
v 8 2 3
v 9 2 -3
v 9 2 3
v 8 1 4
v 8 1 -4
v -8 1 4
v -8 1 -4
v -8 2 -4
v -8 2 4
v 8 2 -4
v 8 2 4
v -8 1 3
v -8 1 -3
v -9 1 3
v -9 1 -3
v -9 2 -3
v -9 2 3
v -8 2 -3
v -8 2 3
v -9 1 2
v -9 1 -2
v -10 1 2
v -10 1 -2
v -10 2 -2
v -10 2 2
v -9 2 -2
v -9 2 2
v 3 -1 0.5
v 3 -1 -0.5
v 2 -1 0.5
v 2 -1 -0.5
v 2 1 -0.5
v 2 1 0.5
v 3 1 -0.5
v 3 1 0.5
v -2 -1 0.5
v -2 -1 -0.5
v -3 -1 0.5
v -3 -1 -0.5
v -3 1 -0.5
v -3 1 0.5
v -2 1 -0.5
v -2 1 0.5
v 2 -6 4
v 2 -6 -4
v -2 -6 4
v -2 -6 -4
v -2 -1 -4
v -2 -1 4
v 2 -1 -4
v 2 -1 4
v 3 -4 4
v 3 -4 -4
v 2 -4 4
v 2 -4 -4
v 2 -2 -4
v 2 -2 4
v 3 -2 -4
v 3 -2 4
v -2 -4 4
v -2 -4 -4
v -3 -4 4
v -3 -4 -4
v -3 -2 -4
v -3 -2 4
v -2 -2 -4
v -2 -2 4
v 10 -6 2
v 10 -6 -2
v 9 -6 2
v 9 -6 -2
v 9 -5 -2
v 9 -5 2
v 10 -5 -2
v 10 -5 2
v 9 -6 3
v 9 -6 -3
v 8 -6 3
v 8 -6 -3
v 8 -5 -3
v 8 -5 3
v 9 -5 -3
v 9 -5 3
v 8 -6 4
v 8 -6 -4
v 2 -5 -4
v 2 -5 4
v 8 -5 -4
v 8 -5 4
v -8 -6 4
v -8 -6 -4
v -8 -5 -4
v -8 -5 4
v -2 -5 -4
v -2 -5 4
v -8 -6 3
v -8 -6 -3
v -9 -6 3
v -9 -6 -3
v -9 -5 -3
v -9 -5 3
v -8 -5 -3
v -8 -5 3
v -9 -6 2
v -9 -6 -2
v -10 -6 2
v -10 -6 -2
v -10 -5 -2
v -10 -5 2
v -9 -5 -2
v -9 -5 2
v 1 -1 1
v 1 -1 -1
v -1 -1 1
v -1 -1 -1
v -1 0 -1
v -1 0 1
v 1 0 -1
v 1 0 1

vn 0 -1 0
vn -1 0 0
vn 0 0 -1
vn 0 0 1
vn 1 0 0
vn 0 1 0

vt 0 NaN
vt 0 0
vt 0 NaN
vt 0 NaN
vt 0 NaN
vt 0 NaN
vt 0 NaN
vt 0 NaN
vt 0 NaN
vt 0 NaN
vt 0 NaN
vt 0 NaN
vt 0 NaN
vt 0 NaN
vt 0 NaN
vt 0 NaN
vt 0 NaN
vt 0 NaN
vt 0 NaN
vt 0 NaN
vt 0 NaN
vt 0 NaN
vt 0 NaN
vt 0 NaN
vt 0 NaN
vt 0 NaN
vt 0 NaN
vt 0 NaN
vt 0 NaN
vt 0 NaN
vt 0 NaN
vt 0 NaN
vt 0 NaN
vt 0 NaN
vt 0 NaN
vt 0 NaN
vt 0 NaN
vt 0 NaN
vt 0 NaN
vt 0 NaN
vt 0 NaN
vt 0 NaN
vt 0 NaN
vt 0 NaN
vt 0 NaN
vt 0 NaN
vt 0 NaN
vt 0 NaN
vt 0 NaN
vt 0 NaN
vt 0 NaN
vt 0 NaN
vt 0 NaN
vt 0 NaN
vt 0 NaN
vt 0 NaN
vt 0 NaN
vt 0 NaN
vt 0 NaN
vt 0 NaN
vt 0 NaN
vt 0 NaN
vt 0 NaN
vt 0 NaN
vt 0 NaN
vt 0 NaN
vt 0 NaN
vt 0 NaN
vt 0 NaN
vt 0 NaN
vt 0 NaN
vt 0 NaN
vt 0 NaN
vt 0 NaN
vt 0 NaN
vt 0 NaN
vt 0 NaN
vt 0 NaN
vt 0 NaN
vt 0 NaN
vt 0 NaN
vt 0 NaN
vt 0 NaN
vt 0 NaN
vt 0 NaN
vt 0 NaN
vt 0 NaN
vt 0 NaN
vt 0 NaN
vt 0 NaN
vt 0 NaN
vt 0 NaN
vt 0 NaN
vt 0 NaN
vt 0 NaN
vt 0 NaN
vt 0 NaN
vt 0 NaN
vt 0 NaN
vt 0 NaN
vt 0 NaN
vt 0 NaN
vt 0 NaN
vt 0 NaN
vt 0 NaN
vt 0 NaN
vt 0 NaN
vt 0 NaN
vt 0 NaN
vt 0 NaN
vt 0 NaN
vt 0 NaN
vt 0 NaN
vt 0 NaN
vt 0 NaN
vt 0 NaN
vt 0 NaN
vt 0 NaN
vt 0 NaN
vt 0 NaN
vt 0 NaN
vt 0 NaN
vt 0 NaN
vt 0 NaN
vt 0 NaN
vt 0 NaN
vt 0 NaN
vt 0 NaN
vt 0 NaN
vt 0 NaN
vt 0 NaN
vt 0 NaN
vt 0 NaN
vt 0 NaN
vt 0 NaN
vt 0 NaN
vt 0 NaN
vt 0 NaN
vt 0 NaN
vt 0 NaN
vt 0 NaN
vt 0 NaN
vt 0 NaN
vt 0 NaN
vt 0 NaN
vt 0 NaN
vt 0 NaN
vt 0 NaN
vt 0 NaN
vt 0 NaN
vt 0 NaN
vt 0 NaN
vt 0 NaN
vt 0 NaN
vt 0 NaN
vt 0 NaN
vt 0 NaN
vt 0 NaN
vt 0 NaN
vt 0 NaN
vt 0 NaN
vt 0 NaN
vt 0 NaN
vt 0 NaN
vt 0 NaN
vt 0 NaN
vt 0 NaN
vt 0 NaN
vt 0 NaN
vt 0 NaN
vt 0 NaN
vt 0 NaN
vt 0 NaN
vt 0 NaN
vt 0 NaN
vt 0 NaN
vt 0 NaN
vt 0 NaN
vt 0 NaN
vt 0 NaN
vt 0 NaN
vt 0 NaN
vt 0 NaN
vt 0 NaN
vt 0 NaN
vt 0 NaN
vt 0 NaN
vt 0 NaN
vt 0 NaN
vt 0 NaN
vt 0 NaN
vt 0 NaN
vt 0 NaN
vt 0 NaN
vt 0 NaN
vt 0 NaN
vt 0 NaN
vt 0 NaN
vt 0 NaN
vt 0 NaN
vt 0 NaN

usemtl color8

f 3/2/1 2/2/1 1/1/1
f 2/2/1 3/2/1 4/3/1
f 3/2/2 5/2/2 4/4/2
f 5/2/2 3/2/2 6/5/2
f 5/2/3 2/2/3 4/6/3
f 2/2/3 5/2/3 7/7/3
f 8/2/4 3/2/4 1/8/4
f 3/2/4 8/2/4 6/9/4
f 8/2/5 2/2/5 7/10/5
f 2/2/5 8/2/5 1/11/5
f 5/2/6 8/2/6 7/12/6
f 8/2/6 5/2/6 6/13/6
f 11/2/1 10/2/1 9/14/1
f 10/2/1 11/2/1 12/15/1
f 11/2/2 13/2/2 12/16/2
f 13/2/2 11/2/2 14/17/2
f 13/2/3 10/2/3 12/18/3
f 10/2/3 13/2/3 15/19/3
f 16/2/4 11/2/4 9/20/4
f 11/2/4 16/2/4 14/21/4
f 16/2/5 10/2/5 15/22/5
f 10/2/5 16/2/5 9/23/5
f 13/2/6 16/2/6 15/24/6
f 16/2/6 13/2/6 14/25/6
f 19/2/1 18/2/1 17/26/1
f 18/2/1 19/2/1 20/27/1
f 19/2/2 21/2/2 20/28/2
f 21/2/2 19/2/2 22/29/2
f 21/2/3 18/2/3 20/30/3
f 18/2/3 21/2/3 23/31/3
f 24/2/4 19/2/4 17/32/4
f 19/2/4 24/2/4 22/33/4
f 24/2/5 18/2/5 23/34/5
f 18/2/5 24/2/5 17/35/5
f 21/2/6 24/2/6 23/36/6
f 24/2/6 21/2/6 22/37/6
f 27/2/1 26/2/1 25/38/1
f 26/2/1 27/2/1 28/39/1
f 27/2/2 29/2/2 28/40/2
f 29/2/2 27/2/2 30/41/2
f 29/2/3 26/2/3 28/42/3
f 26/2/3 29/2/3 31/43/3
f 32/2/4 27/2/4 25/44/4
f 27/2/4 32/2/4 30/45/4
f 32/2/5 26/2/5 31/46/5
f 26/2/5 32/2/5 25/47/5
f 29/2/6 32/2/6 31/48/6
f 32/2/6 29/2/6 30/49/6
f 35/2/1 34/2/1 33/50/1
f 34/2/1 35/2/1 36/51/1
f 35/2/2 37/2/2 36/52/2
f 37/2/2 35/2/2 38/53/2
f 37/2/3 34/2/3 36/54/3
f 34/2/3 37/2/3 39/55/3
f 40/2/4 35/2/4 33/56/4
f 35/2/4 40/2/4 38/57/4
f 40/2/5 34/2/5 39/58/5
f 34/2/5 40/2/5 33/59/5
f 37/2/6 40/2/6 39/60/6
f 40/2/6 37/2/6 38/61/6
f 3/2/1 2/2/1 1/1/1
f 2/2/1 3/2/1 4/3/1
f 3/2/2 5/2/2 4/4/2
f 5/2/2 3/2/2 6/5/2
f 5/2/3 2/2/3 4/6/3
f 2/2/3 5/2/3 7/7/3
f 8/2/4 3/2/4 1/8/4
f 3/2/4 8/2/4 6/9/4
f 8/2/5 2/2/5 7/10/5
f 2/2/5 8/2/5 1/11/5
f 5/2/6 8/2/6 7/12/6
f 8/2/6 5/2/6 6/13/6
f 43/2/1 42/2/1 41/62/1
f 42/2/1 43/2/1 44/63/1
f 43/2/2 45/2/2 44/64/2
f 45/2/2 43/2/2 46/65/2
f 45/2/3 42/2/3 44/66/3
f 42/2/3 45/2/3 47/67/3
f 48/2/4 43/2/4 41/68/4
f 43/2/4 48/2/4 46/69/4
f 48/2/5 42/2/5 47/70/5
f 42/2/5 48/2/5 41/71/5
f 45/2/6 48/2/6 47/72/6
f 48/2/6 45/2/6 46/73/6
f 51/2/1 50/2/1 49/74/1
f 50/2/1 51/2/1 52/75/1
f 51/2/2 53/2/2 52/76/2
f 53/2/2 51/2/2 54/77/2
f 53/2/3 50/2/3 52/78/3
f 50/2/3 53/2/3 55/79/3
f 56/2/4 51/2/4 49/80/4
f 51/2/4 56/2/4 54/81/4
f 56/2/5 50/2/5 55/82/5
f 50/2/5 56/2/5 49/83/5
f 53/2/6 56/2/6 55/84/6
f 56/2/6 53/2/6 54/85/6
f 59/2/1 58/2/1 57/86/1
f 58/2/1 59/2/1 60/87/1
f 59/2/2 61/2/2 60/88/2
f 61/2/2 59/2/2 62/89/2
f 61/2/3 58/2/3 60/90/3
f 58/2/3 61/2/3 63/91/3
f 64/2/4 59/2/4 57/92/4
f 59/2/4 64/2/4 62/93/4
f 64/2/5 58/2/5 63/94/5
f 58/2/5 64/2/5 57/95/5
f 61/2/6 64/2/6 63/96/6
f 64/2/6 61/2/6 62/97/6
f 67/2/1 66/2/1 65/98/1
f 66/2/1 67/2/1 68/99/1
f 67/2/2 69/2/2 68/100/2
f 69/2/2 67/2/2 70/101/2
f 69/2/3 66/2/3 68/102/3
f 66/2/3 69/2/3 71/103/3
f 72/2/4 67/2/4 65/104/4
f 67/2/4 72/2/4 70/105/4
f 72/2/5 66/2/5 71/106/5
f 66/2/5 72/2/5 65/107/5
f 69/2/6 72/2/6 71/108/6
f 72/2/6 69/2/6 70/109/6
f 75/2/1 74/2/1 73/110/1
f 74/2/1 75/2/1 76/111/1
f 75/2/2 77/2/2 76/112/2
f 77/2/2 75/2/2 78/113/2
f 77/2/3 74/2/3 76/114/3
f 74/2/3 77/2/3 79/115/3
f 80/2/4 75/2/4 73/116/4
f 75/2/4 80/2/4 78/117/4
f 80/2/5 74/2/5 79/118/5
f 74/2/5 80/2/5 73/119/5
f 77/2/6 80/2/6 79/120/6
f 80/2/6 77/2/6 78/121/6
f 83/2/1 82/2/1 81/122/1
f 82/2/1 83/2/1 84/123/1
f 83/2/2 85/2/2 84/124/2
f 85/2/2 83/2/2 86/125/2
f 85/2/3 82/2/3 84/126/3
f 82/2/3 85/2/3 87/127/3
f 88/2/4 83/2/4 81/128/4
f 83/2/4 88/2/4 86/129/4
f 88/2/5 82/2/5 87/130/5
f 82/2/5 88/2/5 81/131/5
f 85/2/6 88/2/6 87/132/6
f 88/2/6 85/2/6 86/133/6
f 91/2/1 90/2/1 89/134/1
f 90/2/1 91/2/1 92/135/1
f 91/2/2 93/2/2 92/136/2
f 93/2/2 91/2/2 94/137/2
f 93/2/3 90/2/3 92/138/3
f 90/2/3 93/2/3 95/139/3
f 96/2/4 91/2/4 89/140/4
f 91/2/4 96/2/4 94/141/4
f 96/2/5 90/2/5 95/142/5
f 90/2/5 96/2/5 89/143/5
f 93/2/6 96/2/6 95/144/6
f 96/2/6 93/2/6 94/145/6
f 57/86/1 98/2/1 97/146/1
f 98/2/1 57/86/1 58/2/1
f 57/2/2 99/2/2 58/147/2
f 99/2/2 57/2/2 100/148/2
f 99/2/3 98/2/3 58/2/3
f 98/2/3 99/2/3 101/149/3
f 102/2/4 57/92/4 97/150/4
f 57/92/4 102/2/4 100/151/4
f 102/2/5 98/2/5 101/152/5
f 98/2/5 102/2/5 97/153/5
f 99/2/6 102/2/6 101/154/6
f 102/2/6 99/2/6 100/155/6
f 103/2/1 60/87/1 59/2/1
f 60/87/1 103/2/1 104/156/1
f 103/2/2 105/2/2 104/157/2
f 105/2/2 103/2/2 106/158/2
f 105/2/3 60/90/3 104/159/3
f 60/90/3 105/2/3 107/160/3
f 108/2/4 103/2/4 59/2/4
f 103/2/4 108/2/4 106/161/4
f 108/2/5 60/2/5 107/162/5
f 60/2/5 108/2/5 59/163/5
f 105/2/6 108/2/6 107/164/6
f 108/2/6 105/2/6 106/165/6
f 111/2/1 110/2/1 109/166/1
f 110/2/1 111/2/1 112/167/1
f 111/2/2 113/2/2 112/168/2
f 113/2/2 111/2/2 114/169/2
f 113/2/3 110/2/3 112/170/3
f 110/2/3 113/2/3 115/171/3
f 116/2/4 111/2/4 109/172/4
f 111/2/4 116/2/4 114/173/4
f 116/2/5 110/2/5 115/174/5
f 110/2/5 116/2/5 109/175/5
f 113/2/6 116/2/6 115/176/6
f 116/2/6 113/2/6 114/177/6
f 119/2/1 118/2/1 117/178/1
f 118/2/1 119/2/1 120/179/1
f 119/2/2 121/2/2 120/180/2
f 121/2/2 119/2/2 122/181/2
f 121/2/3 118/2/3 120/182/3
f 118/2/3 121/2/3 123/183/3
f 124/2/4 119/2/4 117/184/4
f 119/2/4 124/2/4 122/185/4
f 124/2/5 118/2/5 123/186/5
f 118/2/5 124/2/5 117/187/5
f 121/2/6 124/2/6 123/188/6
f 124/2/6 121/2/6 122/189/6

usemtl color1

f 127/2/1 126/2/1 125/190/1
f 126/2/1 127/2/1 128/191/1
f 127/2/2 129/2/2 128/192/2
f 129/2/2 127/2/2 130/193/2
f 129/2/3 126/2/3 128/194/3
f 126/2/3 129/2/3 131/195/3
f 132/2/4 127/2/4 125/196/4
f 127/2/4 132/2/4 130/197/4
f 132/2/5 126/2/5 131/198/5
f 126/2/5 132/2/5 125/199/5
f 129/2/6 132/2/6 131/200/6
f 132/2/6 129/2/6 130/201/6

