# Created by Kenney (www.kenney.nl)

mtllib Rock.mtl

v 1 2 0.5
v 1 2 -0.5
v 0 2 0.5
v 0 2 -0.5
v 0 3 -0.5
v 0 3 0.5
v 1 3 -0.5
v 1 3 0.5
v 0 2 1
v 0 2 -1
v -2 2 1
v -2 2 -1
v -2 3 -1
v -2 3 1
v 0 3 -1
v 0 3 1
v 2 1 1
v 2 1 -1
v 0 1 1
v 0 1 -1
v 2 2 -1
v 2 2 1
v 0 0 2
v 0 0 -2
v -2 0 2
v -2 0 -2
v -2 2 -2
v -2 2 2
v 0 2 -2
v 0 2 2
v -2 1 1
v -2 1 -1
v -3 1 1
v -3 1 -1
v -3 2 -1
v -3 2 1
v 3 0 1
v 3 0 -1
v 2 0 1
v 2 0 -1
v 3 1 -1
v 3 1 1
v 2 -1 2
v 2 -1 -2
v 1 -1 2
v 1 -1 -2
v 1 1 -2
v 1 1 2
v 2 1 -2
v 2 1 2
v 1 0 2
v 1 0 -2
v 0 1 -2
v 0 1 2
v -3 0 2
v -3 0 -2
v -3 1 -2
v -3 1 2
v -2 1 -2
v -2 1 2
v -3 0 1
v -3 0 -1
v -4 0 1
v -4 0 -1
v -4 1 -1
v -4 1 1
v 4 -1 1
v 4 -1 -1
v 3 -1 1
v 3 -1 -1
v 4 0 -1
v 4 0 1
v 3 -1 2
v 3 -1 -2
v 2 0 -2
v 2 0 2
v 3 0 -2
v 3 0 2
v 0 -1 2
v 0 -1 -2
v 0 -1 3
v 0 -1 -3
v -1 -1 3
v -1 -1 -3
v -1 0 -3
v -1 0 3
v 0 0 -3
v 0 0 3
v -2 -1 3
v -2 -1 -3
v -2 0 -3
v -2 0 3
v -2 -1 2
v -2 -1 -2
v -3 -1 2
v -3 -1 -2
v -4 -1 2
v -4 -1 -2
v -4 0 -2
v -4 0 2
v -4 -1 1
v -4 -1 -1
v -5 -1 1
v -5 -1 -1
v -5 0 -1
v -5 0 1

vn 0 -1 0
vn -1 0 0
vn 0 0 -1
vn 0 0 1
vn 1 0 0
vn 0 1 0

vt 0.359375 0.390625
vt 0.359375 0.375
vt 0.375 0.390625
vt 0.375 0.375
vt 0.375 0.65625
vt 0.375 0.671875
vt 0.390625 0.65625
vt 0.390625 0.671875
vt 0.125 0.65625
vt 0.109375 0.65625
vt 0.125 0.671875
vt 0.109375 0.671875
vt 0.640625 0.65625
vt 0.625 0.65625
vt 0.640625 0.671875
vt 0.625 0.671875
vt 0.875 0.671875
vt 0.875 0.65625
vt 0.890625 0.671875
vt 0.890625 0.65625
vt 0.359375 0.875
vt 0.359375 0.890625
vt 0.375 0.875
vt 0.375 0.890625
vt 0.375 0.3984375
vt 0.375 0.3671875
vt 0.40625 0.3984375
vt 0.40625 0.3671875
vt 0.3671875 0.65625
vt 0.3671875 0.671875
vt 0.3984375 0.65625
vt 0.3984375 0.671875
vt 0.15625 0.65625
vt 0.15625 0.671875
vt 0.59375 0.65625
vt 0.59375 0.671875
vt 0.8671875 0.671875
vt 0.8671875 0.65625
vt 0.8984375 0.671875
vt 0.8984375 0.65625
vt 0.375 0.8671875
vt 0.375 0.8984375
vt 0.40625 0.8671875
vt 0.40625 0.8984375
vt 0.34375 0.3984375
vt 0.34375 0.3671875
vt 0.3671875 0.640625
vt 0.3984375 0.640625
vt 0.125 0.640625
vt 0.09375 0.640625
vt 0.09375 0.65625
vt 0.65625 0.640625
vt 0.625 0.640625
vt 0.65625 0.65625
vt 0.8671875 0.640625
vt 0.8984375 0.640625
vt 0.34375 0.8671875
vt 0.34375 0.8984375
vt 0.375 0.4140625
vt 0.375 0.3515625
vt 0.40625 0.4140625
vt 0.40625 0.3515625
vt 0.3515625 0.625
vt 0.3515625 0.65625
vt 0.4140625 0.625
vt 0.4140625 0.65625
vt 0.15625 0.625
vt 0.125 0.625
vt 0.625 0.625
vt 0.59375 0.625
vt 0.8515625 0.65625
vt 0.8515625 0.625
vt 0.9140625 0.65625
vt 0.9140625 0.625
vt 0.375 0.8515625
vt 0.375 0.9140625
vt 0.40625 0.8515625
vt 0.40625 0.9140625
vt 0.421875 0.3984375
vt 0.421875 0.3671875
vt 0.171875 0.640625
vt 0.15625 0.640625
vt 0.171875 0.65625
vt 0.59375 0.640625
vt 0.578125 0.640625
vt 0.578125 0.65625
vt 0.421875 0.8671875
vt 0.421875 0.8984375
vt 0.328125 0.3984375
vt 0.328125 0.3671875
vt 0.3671875 0.625
vt 0.3984375 0.625
vt 0.09375 0.625
vt 0.078125 0.625
vt 0.078125 0.640625
vt 0.671875 0.625
vt 0.65625 0.625
vt 0.671875 0.640625
vt 0.8671875 0.625
vt 0.8984375 0.625
vt 0.328125 0.8671875
vt 0.328125 0.8984375
vt 0.34375 0.4140625
vt 0.34375 0.3515625
vt 0.359375 0.4140625
vt 0.359375 0.3515625
vt 0.3515625 0.609375
vt 0.3515625 0.640625
vt 0.4140625 0.609375
vt 0.4140625 0.640625
vt 0.109375 0.609375
vt 0.09375 0.609375
vt 0.109375 0.640625
vt 0.65625 0.609375
vt 0.640625 0.609375
vt 0.640625 0.640625
vt 0.8515625 0.640625
vt 0.8515625 0.609375
vt 0.9140625 0.640625
vt 0.9140625 0.609375
vt 0.34375 0.8515625
vt 0.34375 0.9140625
vt 0.359375 0.8515625
vt 0.359375 0.9140625
vt 0.109375 0.625
vt 0.640625 0.625
vt 0.421875 0.4140625
vt 0.421875 0.3515625
vt 0.171875 0.625
vt 0.578125 0.625
vt 0.421875 0.8515625
vt 0.421875 0.9140625
vt 0.4375 0.3984375
vt 0.4375 0.3671875
vt 0.1875 0.625
vt 0.1875 0.640625
vt 0.5625 0.625
vt 0.5625 0.640625
vt 0.4375 0.8671875
vt 0.4375 0.8984375
vt 0.3125 0.3984375
vt 0.3125 0.3671875
vt 0.3671875 0.609375
vt 0.3984375 0.609375
vt 0.078125 0.609375
vt 0.0625 0.609375
vt 0.0625 0.625
vt 0.6875 0.609375
vt 0.671875 0.609375
vt 0.6875 0.625
vt 0.8671875 0.609375
vt 0.8984375 0.609375
vt 0.3125 0.8671875
vt 0.3125 0.8984375
vt 0.328125 0.4140625
vt 0.328125 0.3515625
vt 0.328125 0.8515625
vt 0.328125 0.9140625
vt 0.125 0.609375
vt 0.625 0.609375
vt 0.375 0.4296875
vt 0.375 0.3359375
vt 0.390625 0.4296875
vt 0.390625 0.3359375
vt 0.3359375 0.609375
vt 0.3359375 0.625
vt 0.4296875 0.609375
vt 0.4296875 0.625
vt 0.140625 0.609375
vt 0.140625 0.625
vt 0.609375 0.609375
vt 0.609375 0.625
vt 0.8359375 0.625
vt 0.8359375 0.609375
vt 0.9296875 0.625
vt 0.9296875 0.609375
vt 0.375 0.8359375
vt 0.375 0.9296875
vt 0.390625 0.8359375
vt 0.390625 0.9296875
vt 0.40625 0.4296875
vt 0.40625 0.3359375
vt 0.15625 0.609375
vt 0.59375 0.609375
vt 0.40625 0.8359375
vt 0.40625 0.9296875
vt 0.171875 0.609375
vt 0.578125 0.609375
vt 0.4375 0.4140625
vt 0.4375 0.3515625
vt 0.1875 0.609375
vt 0.5625 0.609375
vt 0.4375 0.8515625
vt 0.4375 0.9140625
vt 0.453125 0.3984375
vt 0.453125 0.3671875
vt 0.203125 0.609375
vt 0.203125 0.625
vt 0.546875 0.609375
vt 0.546875 0.625
vt 0.453125 0.8671875
vt 0.453125 0.8984375

usemtl Rock

f 3/3/1 2/2/1 1/1/1
f 2/2/1 3/3/1 4/4/1
f 3/7/2 5/6/2 4/5/2
f 5/6/2 3/7/2 6/8/2
f 5/11/3 2/10/3 4/9/3
f 2/10/3 5/11/3 7/12/3
f 8/15/4 3/14/4 1/13/4
f 3/14/4 8/15/4 6/16/4
f 8/19/5 2/18/5 7/17/5
f 2/18/5 8/19/5 1/20/5
f 5/23/6 8/22/6 7/21/6
f 8/22/6 5/23/6 6/24/6
f 11/27/1 10/26/1 9/25/1
f 10/26/1 11/27/1 12/28/1
f 11/31/2 13/30/2 12/29/2
f 13/30/2 11/31/2 14/32/2
f 13/34/3 10/9/3 12/33/3
f 10/9/3 13/34/3 15/11/3
f 16/16/4 11/35/4 9/14/4
f 11/35/4 16/16/4 14/36/4
f 16/39/5 10/38/5 15/37/5
f 10/38/5 16/39/5 9/40/5
f 13/43/6 16/42/6 15/41/6
f 16/42/6 13/43/6 14/44/6
f 3/3/1 2/2/1 1/1/1
f 2/2/1 3/3/1 4/4/1
f 3/7/2 5/6/2 4/5/2
f 5/6/2 3/7/2 6/8/2
f 5/11/3 2/10/3 4/9/3
f 2/10/3 5/11/3 7/12/3
f 8/15/4 3/14/4 1/13/4
f 3/14/4 8/15/4 6/16/4
f 8/19/5 2/18/5 7/17/5
f 2/18/5 8/19/5 1/20/5
f 5/23/6 8/22/6 7/21/6
f 8/22/6 5/23/6 6/24/6
f 19/25/1 18/46/1 17/45/1
f 18/46/1 19/25/1 20/26/1
f 19/48/2 10/29/2 20/47/2
f 10/29/2 19/48/2 9/31/2
f 10/9/3 18/50/3 20/49/3
f 18/50/3 10/9/3 21/51/3
f 22/54/4 19/53/4 17/52/4
f 19/53/4 22/54/4 9/14/4
f 22/40/5 18/55/5 21/38/5
f 18/55/5 22/40/5 17/56/5
f 10/41/6 22/58/6 21/57/6
f 22/58/6 10/41/6 9/42/6
f 25/61/1 24/60/1 23/59/1
f 24/60/1 25/61/1 26/62/1
f 25/65/2 27/64/2 26/63/2
f 27/64/2 25/65/2 28/66/2
f 27/33/3 24/68/3 26/67/3
f 24/68/3 27/33/3 29/9/3
f 30/14/4 25/70/4 23/69/4
f 25/70/4 30/14/4 28/35/4
f 30/73/5 24/72/5 29/71/5
f 24/72/5 30/73/5 23/74/5
f 27/77/6 30/76/6 29/75/6
f 30/76/6 27/77/6 28/78/6
f 33/79/1 32/28/1 31/27/1
f 32/28/1 33/79/1 34/80/1
f 33/48/2 35/29/2 34/47/2
f 35/29/2 33/48/2 36/31/2
f 35/83/3 32/82/3 34/81/3
f 32/82/3 35/83/3 12/33/3
f 11/35/4 33/85/4 31/84/4
f 33/85/4 11/35/4 36/86/4
f 11/40/5 32/55/5 12/38/5
f 32/55/5 11/40/5 31/56/5
f 35/87/6 11/44/6 12/43/6
f 11/44/6 35/87/6 36/88/6
f 39/45/1 38/90/1 37/89/1
f 38/90/1 39/45/1 40/46/1
f 39/92/2 18/47/2 40/91/2
f 18/47/2 39/92/2 17/48/2
f 18/50/3 38/94/3 40/93/3
f 38/94/3 18/50/3 41/95/3
f 42/98/4 39/97/4 37/96/4
f 39/97/4 42/98/4 17/52/4
f 42/56/5 38/99/5 41/55/5
f 38/99/5 42/56/5 37/100/5
f 18/57/6 42/102/6 41/101/6
f 42/102/6 18/57/6 17/58/6
f 45/105/1 44/104/1 43/103/1
f 44/104/1 45/105/1 46/106/1
f 45/109/2 47/108/2 46/107/2
f 47/108/2 45/109/2 48/110/2
f 47/113/3 44/112/3 46/111/3
f 44/112/3 47/113/3 49/50/3
f 50/52/4 45/115/4 43/114/4
f 45/115/4 50/52/4 48/116/4
f 50/119/5 44/118/5 49/117/5
f 44/118/5 50/119/5 43/120/5
f 47/123/6 50/122/6 49/121/6
f 50/122/6 47/123/6 48/124/6
f 23/59/1 52/106/1 51/105/1
f 52/106/1 23/59/1 24/60/1
f 23/65/2 53/108/2 24/63/2
f 53/108/2 23/65/2 54/110/2
f 53/49/3 52/125/3 24/68/3
f 52/125/3 53/49/3 47/113/3
f 48/116/4 23/69/4 51/126/4
f 23/69/4 48/116/4 54/53/4
f 48/119/5 52/72/5 47/117/5
f 52/72/5 48/119/5 51/74/5
f 53/75/6 48/124/6 47/123/6
f 48/124/6 53/75/6 54/76/6
f 55/127/1 26/62/1 25/61/1
f 26/62/1 55/127/1 56/128/1
f 55/65/2 57/108/2 56/63/2
f 57/108/2 55/65/2 58/110/2
f 57/81/3 26/67/3 56/129/3
f 26/67/3 57/81/3 59/82/3
f 60/84/4 55/130/4 25/70/4
f 55/130/4 60/84/4 58/85/4
f 60/119/5 26/72/5 59/117/5
f 26/72/5 60/119/5 25/74/5
f 57/131/6 60/78/6 59/77/6
f 60/78/6 57/131/6 58/132/6
f 63/133/1 62/80/1 61/79/1
f 62/80/1 63/133/1 64/134/1
f 63/92/2 65/47/2 64/91/2
f 65/47/2 63/92/2 66/48/2
f 65/136/3 62/129/3 64/135/3
f 62/129/3 65/136/3 34/81/3
f 33/85/4 63/137/4 61/130/4
f 63/137/4 33/85/4 66/138/4
f 33/56/5 62/99/5 34/55/5
f 62/99/5 33/56/5 61/100/5
f 65/139/6 33/88/6 34/87/6
f 33/88/6 65/139/6 66/140/6
f 69/89/1 68/142/1 67/141/1
f 68/142/1 69/89/1 70/90/1
f 69/144/2 38/91/2 70/143/2
f 38/91/2 69/144/2 37/92/2
f 38/94/3 68/146/3 70/145/3
f 68/146/3 38/94/3 71/147/3
f 72/150/4 69/149/4 67/148/4
f 69/149/4 72/150/4 37/96/4
f 72/100/5 68/151/5 71/99/5
f 68/151/5 72/100/5 67/152/5
f 38/101/6 72/154/6 71/153/6
f 72/154/6 38/101/6 37/102/6
f 43/103/1 74/156/1 73/155/1
f 74/156/1 43/103/1 44/104/1
f 43/109/2 75/63/2 44/107/2
f 75/63/2 43/109/2 76/65/2
f 75/93/3 74/145/3 44/112/3
f 74/145/3 75/93/3 77/94/3
f 78/96/4 43/114/4 73/149/4
f 43/114/4 78/96/4 76/97/4
f 78/74/5 74/118/5 77/72/5
f 74/118/5 78/74/5 73/120/5
f 75/121/6 78/158/6 77/157/6
f 78/158/6 75/121/6 76/122/6
f 79/59/1 46/106/1 45/105/1
f 46/106/1 79/59/1 80/60/1
f 79/109/2 24/63/2 80/107/2
f 24/63/2 79/109/2 23/65/2
f 24/68/3 46/111/3 80/159/3
f 46/111/3 24/68/3 52/125/3
f 51/126/4 79/160/4 45/115/4
f 79/160/4 51/126/4 23/69/4
f 51/74/5 46/118/5 52/72/5
f 46/118/5 51/74/5 45/120/5
f 24/75/6 51/124/6 52/123/6
f 51/124/6 24/75/6 23/76/6
f 83/163/1 82/162/1 81/161/1
f 82/162/1 83/163/1 84/164/1
f 83/167/2 85/166/2 84/165/2
f 85/166/2 83/167/2 86/168/2
f 85/170/3 82/159/3 84/169/3
f 82/159/3 85/170/3 87/68/3
f 88/69/4 83/171/4 81/160/4
f 83/171/4 88/69/4 86/172/4
f 88/175/5 82/174/5 87/173/5
f 82/174/5 88/175/5 81/176/5
f 85/179/6 88/178/6 87/177/6
f 88/178/6 85/179/6 86/180/6
f 89/181/1 84/164/1 83/163/1
f 84/164/1 89/181/1 90/182/1
f 89/167/2 91/166/2 90/165/2
f 91/166/2 89/167/2 92/168/2
f 91/67/3 84/169/3 90/183/3
f 84/169/3 91/67/3 85/170/3
f 86/172/4 89/184/4 83/171/4
f 89/184/4 86/172/4 92/70/4
f 86/175/5 84/174/5 85/173/5
f 84/174/5 86/175/5 83/176/5
f 91/185/6 86/180/6 85/179/6
f 86/180/6 91/185/6 92/186/6
f 95/127/1 94/62/1 93/61/1
f 94/62/1 95/127/1 96/128/1
f 95/109/2 56/63/2 96/107/2
f 56/63/2 95/109/2 55/65/2
f 56/129/3 94/183/3 96/187/3
f 94/183/3 56/129/3 26/67/3
f 25/70/4 95/188/4 93/184/4
f 95/188/4 25/70/4 55/130/4
f 25/74/5 94/118/5 26/72/5
f 94/118/5 25/74/5 93/120/5
f 56/131/6 25/78/6 26/77/6
f 25/78/6 56/131/6 55/132/6
f 97/189/1 96/128/1 95/127/1
f 96/128/1 97/189/1 98/190/1
f 97/109/2 99/63/2 98/107/2
f 99/63/2 97/109/2 100/65/2
f 99/135/3 96/187/3 98/191/3
f 96/187/3 99/135/3 56/129/3
f 55/130/4 97/192/4 95/188/4
f 97/192/4 55/130/4 100/137/4
f 55/74/5 96/118/5 56/72/5
f 96/118/5 55/74/5 95/120/5
f 99/193/6 55/132/6 56/131/6
f 55/132/6 99/193/6 100/194/6
f 103/195/1 102/134/1 101/133/1
f 102/134/1 103/195/1 104/196/1
f 103/144/2 105/91/2 104/143/2
f 105/91/2 103/144/2 106/92/2
f 105/198/3 102/191/3 104/197/3
f 102/191/3 105/198/3 64/135/3
f 63/137/4 103/199/4 101/192/4
f 103/199/4 63/137/4 106/200/4
f 63/100/5 102/151/5 64/99/5
f 102/151/5 63/100/5 101/152/5
f 105/201/6 63/140/6 64/139/6
f 63/140/6 105/201/6 106/202/6

